<?xml version="1.0" encoding="utf-8"?>
<!-- Generator: Adobe Illustrator 19.2.0, SVG Export Plug-In . SVG Version: 6.00 Build 0)  -->
<svg version="1.1" id="Layer_1" xmlns="http://www.w3.org/2000/svg" xmlns:xlink="http://www.w3.org/1999/xlink" x="0px" y="0px"
	 viewBox="0 0 323.3 258.6" width="40" style="enable-background:new 0 0 323.3 258.6;" xml:space="preserve">
<path fill="#fff" d="M323.3,26.9v204.8c0,7.4-2.6,13.8-7.9,19c-5.3,5.3-11.6,7.9-19,7.9H26.9c-7.4,0-13.8-2.6-19-7.9c-5.3-5.3-7.9-11.6-7.9-19
	V26.9c0-7.4,2.6-13.8,7.9-19C13.2,2.6,19.5,0,26.9,0h269.4c7.4,0,13.8,2.6,19,7.9C320.6,13.2,323.3,19.5,323.3,26.9z M296.3,21.5
	H26.9c-1.5,0-2.7,0.5-3.8,1.6s-1.6,2.3-1.6,3.8v204.8c0,1.5,0.5,2.7,1.6,3.8c1.1,1.1,2.3,1.6,3.8,1.6h269.4c1.5,0,2.7-0.5,3.8-1.6
	c1.1-1.1,1.6-2.3,1.6-3.8V26.9c0-1.5-0.5-2.7-1.6-3.8C299,22.1,297.8,21.5,296.3,21.5z M123.6,76.9v106.8l89.9-60.6L123.6,76.9z"/>
</svg>
